<?xml version="1.0" encoding="UTF-8"?>
<svg version="1.1" xmlns="http://www.w3.org/2000/svg" width="100" height="100">
<path d="M0 0 C33 0 66 0 100 0 C100 33 100 66 100 100 C67 100 34 100 0 100 C0 67 0 34 0 0 Z " fill="#390D0E" transform="translate(0,0)"/>
<path d="M0 0 C33 0 66 0 100 0 C100 33 100 66 100 100 C67 100 34 100 0 100 C0 67 0 34 0 0 Z M8.5625 12.5625 C8.08941406 13.14128906 7.61632812 13.72007813 7.12890625 14.31640625 C4.83115539 17.7431558 4.85076189 20.8879678 4.79125977 24.88916016 C4.77196915 26.10117096 4.75267853 27.31318176 4.73280334 28.56192017 C4.67500284 34.11498673 4.62546667 39.66790655 4.5949707 45.22119141 C4.57720402 48.14677139 4.54245961 51.07137897 4.49243164 53.99658203 C4.43190673 57.54040147 4.40145136 61.08332434 4.39179802 64.62763596 C4.37918447 66.62011451 4.33720717 68.61233837 4.29457092 70.60440063 C4.31024531 77.55842456 4.77292095 82.68869373 9.21128845 88.23654175 C16.17106632 95.09806044 24.17684103 94.59472724 33.5 94.53125 C34.9042996 94.5339501 36.30859737 94.53783682 37.71289062 94.54284668 C40.64471374 94.54871753 43.57604674 94.54025796 46.5078125 94.52148438 C50.24685691 94.49869525 53.98475252 94.51183151 57.72375488 94.53577423 C60.62020363 94.5502984 63.51638454 94.54559627 66.4128418 94.53526306 C67.79061014 94.53261397 69.16840362 94.53580086 70.54614258 94.54518127 C82.56657857 94.63354313 82.56657857 94.63354313 92.54467773 88.48205566 C96.35244024 84.0886119 97.12738582 81.60770492 97.17700195 75.90136719 C97.18983719 74.61953552 97.20267242 73.33770386 97.21589661 72.01702881 C97.22406505 70.6103148 97.23150858 69.20359642 97.23828125 67.796875 C97.24235678 67.0890815 97.2464323 66.38128799 97.25063133 65.6520462 C97.27149563 61.90393872 97.28579432 58.15586785 97.29516602 54.40771484 C97.30621621 50.54288483 97.3405981 46.67863284 97.38033772 42.81400681 C97.40653352 39.83706622 97.41486055 36.86026255 97.41844749 33.88321686 C97.42330785 32.45909991 97.43490626 31.03498885 97.45348549 29.6109848 C97.47792942 27.6128688 97.47448698 25.61447134 97.4699707 23.61621094 C97.47877007 21.91316803 97.47877007 21.91316803 97.48774719 20.17572021 C96.72705192 15.22283601 94.1991363 12.13602387 90.625 8.75 C85.87704905 5.58469937 81.39555746 4.74989292 75.75439453 4.70947266 C74.53938263 4.69671295 73.32437073 4.68395325 72.07254028 4.67080688 C70.77243011 4.66858124 69.47231995 4.66635559 68.1328125 4.6640625 C66.77049625 4.65762628 65.40818135 4.65089732 64.04586792 4.64389038 C61.19639891 4.63194871 58.34705085 4.62820636 55.49755859 4.62939453 C51.86390516 4.62959762 48.2310347 4.60229328 44.5975666 4.56785011 C41.7852326 4.54550581 38.97308487 4.54155926 36.16067123 4.54261398 C34.17550604 4.53913727 32.19039899 4.51752457 30.20535278 4.49551392 C21.58589214 4.53894065 14.26908843 5.33631011 8.5625 12.5625 Z " fill="#781C22" transform="translate(0,0)"/>
<path d="M0 0 C6.765 -0.103125 13.53 -0.20625 20.5 -0.3125 C22.61986328 -0.35802002 24.73972656 -0.40354004 26.92382812 -0.45043945 C28.62628605 -0.46505859 30.3287616 -0.47779588 32.03125 -0.48828125 C33.3301416 -0.526651 33.3301416 -0.526651 34.65527344 -0.5657959 C40.98526993 -0.57028653 45.07695445 0.9984947 50 5 C53.26265295 8.67048457 53.46967039 12.11746196 53.28125 16.859375 C52.6812626 21.42594574 50.43208525 23.58711854 47.1875 26.6875 C42.10983023 30.37129964 37.71517442 31.25443023 31.5078125 31.1953125 C30.4264502 31.19031738 29.34508789 31.18532227 28.23095703 31.18017578 C26.87599121 31.16196777 25.52102539 31.14375977 24.125 31.125 C19.79375 31.08375 15.4625 31.0425 11 31 C11 42.88 11 54.76 11 67 C7.37 67 3.74 67 0 67 C0 44.89 0 22.78 0 0 Z " fill="#FBF8F8" transform="translate(29,16)"/>
<path d="M0 0 C0.85494049 -0.01283524 1.70988098 -0.02567047 2.59072876 -0.03889465 C3.51775604 -0.04628159 4.44478333 -0.05366852 5.39990234 -0.0612793 C6.35472504 -0.06935104 7.30954773 -0.07742279 8.29330444 -0.08573914 C10.31921571 -0.09958808 12.34515039 -0.1103066 14.37109375 -0.11816406 C17.45277015 -0.13531401 20.53335615 -0.17918537 23.61474609 -0.22338867 C25.5847903 -0.23352122 27.55484362 -0.24203556 29.52490234 -0.2487793 C30.43978424 -0.26628738 31.35466614 -0.28379547 32.29727173 -0.30183411 C39.29483922 -0.278407 44.57777168 1.33624468 49.91943359 5.95825195 C50.60199219 6.8090332 50.60199219 6.8090332 51.29833984 7.67700195 C51.77142578 8.24418945 52.24451172 8.81137695 52.73193359 9.39575195 C55.34049714 13.51168614 55.47190194 18.43481584 54.86083984 23.17700195 C52.98630648 28.9934112 49.96202073 32.74351482 44.86083984 36.17700195 C38.59157708 38.99402751 33.19185334 39.69074798 26.36083984 39.86450195 C25.44302734 39.89866211 24.52521484 39.93282227 23.57958984 39.96801758 C21.34012895 40.04966459 19.10101834 40.11907734 16.86083984 40.17700195 C16.88178711 41.02931396 16.90273438 41.88162598 16.92431641 42.75976562 C16.99269228 45.93729629 17.04273722 49.11445066 17.08056641 52.29248047 C17.10061975 53.66500219 17.12787013 55.03743912 17.16259766 56.40966797 C17.21138536 58.38772239 17.23172861 60.36641314 17.25146484 62.3449707 C17.27241211 63.53372803 17.29335938 64.72248535 17.31494141 65.94726562 C16.76880215 69.83160768 15.62803641 71.44509807 12.86083984 74.17700195 C9.24216425 75.38322715 5.93577734 75.28517113 2.17333984 75.23950195 C1.47144531 75.23499023 0.76955078 75.23047852 0.04638672 75.22583008 C-1.68216554 75.21407122 -3.41067381 75.19613649 -5.13916016 75.17700195 C-6.61039379 72.23453468 -6.2584078 69.62515174 -6.25268555 66.34057617 C-6.25290459 65.28675247 -6.25290459 65.28675247 -6.25312805 64.2116394 C-6.2524303 61.88495822 -6.24464434 59.55835668 -6.23681641 57.23168945 C-6.23495174 55.62029057 -6.23352806 54.00889111 -6.23252869 52.39749146 C-6.22870736 48.15271443 -6.21888033 43.90797153 -6.20782471 39.66320801 C-6.19760234 35.33317527 -6.19302929 31.00313703 -6.18798828 26.6730957 C-6.17725774 18.17438211 -6.16018591 9.67569628 -6.13916016 1.17700195 C-3.85639477 0.03561926 -2.53805018 0.03317702 0 0 Z M-2.13916016 4.17700195 C-2.13916016 26.28700195 -2.13916016 48.39700195 -2.13916016 71.17700195 C1.49083984 71.17700195 5.12083984 71.17700195 8.86083984 71.17700195 C8.86083984 59.29700195 8.86083984 47.41700195 8.86083984 35.17700195 C21.79833984 35.42700195 21.79833984 35.42700195 25.8215332 35.53735352 C34.70376075 35.61998509 41.0315691 34.44783738 47.86083984 28.61450195 C51.04229511 24.73710335 51.21266181 21.28673508 51.13427734 16.45825195 C50.69651145 12.80603366 49.30592629 10.87286649 46.86083984 8.17700195 C41.13054641 4.13035381 36.90522932 3.62390803 29.98974609 3.78637695 C29.17115112 3.79040527 28.35255615 3.79443359 27.50915527 3.79858398 C24.48031886 3.81935539 21.45180448 3.87520002 18.42333984 3.92700195 C8.24490234 4.05075195 8.24490234 4.05075195 -2.13916016 4.17700195 Z " fill="#E21B27" transform="translate(31.13916015625,11.822998046875)"/>
<path d="M0 0 C27.06 0 54.12 0 82 0 C82 33 82 66 82 100 C57.91 100 33.82 100 9 100 C8.67 99.34 8.34 98.68 8 98 C8.7213916 97.99635437 9.4427832 97.99270874 10.18603516 97.98895264 C17.0120807 97.95095557 23.83773761 97.89397079 30.66343689 97.81609726 C34.17196416 97.77672684 37.6802444 97.74448793 41.18896484 97.72900391 C45.23054558 97.71084656 49.27120524 97.66085047 53.3125 97.609375 C54.5617627 97.60814636 55.81102539 97.60691772 57.09814453 97.60565186 C65.94036441 97.45796977 71.02880875 96.07587767 77.95629883 90.71020508 C81.83589763 85.48710937 80.73505999 77.85702128 80.69921875 71.63671875 C80.70513442 70.1198521 80.71238397 68.60299013 80.72090149 67.08613586 C80.73276205 63.91109854 80.72611105 60.73676302 80.70678711 57.56176758 C80.68395224 53.51299301 80.71062756 49.46632461 80.75184917 45.41775799 C80.77755859 42.28530376 80.77481121 39.15334429 80.76395607 36.02082253 C80.76247906 34.52942815 80.77004654 33.037994 80.78720665 31.54669762 C80.86374956 23.60371433 80.63990716 17.20656371 75.68244934 10.65266418 C72.84402305 7.86448783 69.68901655 6.37183082 66 5 C65.26227859 4.66102692 64.52455719 4.32205383 63.76448059 3.97280884 C60.607455 2.8618651 58.08466421 2.72201219 54.7409668 2.68115234 C52.87960335 2.65134781 52.87960335 2.65134781 50.9806366 2.62094116 C49.63683246 2.60906671 48.29302643 2.59740374 46.94921875 2.5859375 C45.56629799 2.56721502 44.18338853 2.5476408 42.80049133 2.5272522 C39.17233962 2.47603882 35.54415091 2.43635569 31.91583252 2.39910889 C28.20877004 2.35900125 24.50186001 2.30793985 20.79492188 2.2578125 C13.53005271 2.16118118 6.26510945 2.07673587 -1 2 C-0.67 1.34 -0.34 0.68 0 0 Z " fill="#661920" transform="translate(18,0)"/>
<path d="M0 0 C1.28252403 -0.01925285 1.28252403 -0.01925285 2.59095764 -0.03889465 C3.52314621 -0.04628159 4.45533478 -0.05366852 5.41577148 -0.0612793 C6.37200912 -0.06935104 7.32824677 -0.07742279 8.3134613 -0.08573914 C10.34534888 -0.09960356 12.37725997 -0.1103151 14.40917969 -0.11816406 C17.49972749 -0.13529223 20.58918208 -0.17914675 23.67944336 -0.22338867 C25.65404487 -0.23352275 27.62865548 -0.24203661 29.60327148 -0.2487793 C30.52129044 -0.26628738 31.43930939 -0.28379547 32.38514709 -0.30183411 C39.45096001 -0.27826558 44.46300608 1.4845232 50.06811523 5.7824707 C53.11083969 9.20553572 54.33472296 11.45825762 54.34936523 16.11450195 C54.25424519 17.47109494 54.13965197 18.82716024 53.97436523 20.17700195 C52.98436523 20.50700195 51.99436523 20.83700195 50.97436523 21.17700195 C50.88799805 20.58532227 50.80163086 19.99364258 50.71264648 19.3840332 C49.72658931 13.83859239 48.57007704 10.78791837 43.97436523 7.17700195 C41.10024342 5.49477548 38.98439559 4.91814708 35.66479492 4.8581543 C34.38644775 4.82806274 34.38644775 4.82806274 33.08227539 4.79736328 C31.75268799 4.78032349 31.75268799 4.78032349 30.39624023 4.76293945 C29.16381592 4.73647339 29.16381592 4.73647339 27.90649414 4.70947266 C24.84598127 4.64654675 21.78514448 4.60026263 18.72436523 4.55200195 C11.87686523 4.42825195 5.02936523 4.30450195 -2.02563477 4.17700195 C-2.02563477 26.28700195 -2.02563477 48.39700195 -2.02563477 71.17700195 C-3.01563477 70.84700195 -4.00563477 70.51700195 -5.02563477 70.17700195 C-5.04876043 61.19779418 -5.06655099 52.21859659 -5.07744694 43.23936558 C-5.08267528 39.07037368 -5.08977203 34.90140208 -5.10107422 30.73242188 C-5.11190485 26.7124251 -5.11791197 22.6924479 -5.12051201 18.67243767 C-5.12236594 17.1353722 -5.12598595 15.59830786 -5.13136482 14.06125069 C-5.1385776 11.91564709 -5.13962561 9.7701254 -5.13916016 7.62451172 C-5.14138077 6.40095474 -5.14360138 5.17739777 -5.14588928 3.91676331 C-4.96025759 -0.3124878 -3.83925298 0.0500386 0 0 Z " fill="#E23742" transform="translate(31.025634765625,11.822998046875)"/>
<path d="M0 0 C1.31559402 -0.00761353 2.63118805 -0.01522705 3.98664856 -0.02307129 C6.76633239 -0.03647404 9.54573248 -0.03810557 12.32543945 -0.03222656 C15.85464537 -0.02635434 19.38246418 -0.05683552 22.9114027 -0.09734344 C25.65616441 -0.12344622 28.4006029 -0.12607739 31.14547157 -0.12245178 C33.0684277 -0.12492718 34.99131584 -0.14947105 36.91410828 -0.17468262 C45.96719922 -0.10434932 54.85867501 1.25406958 61.72941589 7.63830566 C62.27890396 8.24235229 62.82839203 8.84639893 63.39453125 9.46875 C63.06453125 10.12875 62.73453125 10.78875 62.39453125 11.46875 C61.02734375 10.23177083 59.66015625 8.99479167 58.29296875 7.7578125 C53.92198376 4.78985973 49.32401421 4.21530339 44.14892578 4.17822266 C42.93391388 4.16546295 41.71890198 4.15270325 40.46707153 4.13955688 C39.16696136 4.13733124 37.8668512 4.13510559 36.52734375 4.1328125 C35.1650275 4.12637628 33.8027126 4.11964732 32.44039917 4.11264038 C29.59093016 4.10069871 26.7415821 4.09695636 23.89208984 4.09814453 C20.25843641 4.09834762 16.62556595 4.07104328 12.99209785 4.03660011 C10.17976385 4.01425581 7.36761612 4.01030926 4.55520248 4.01136398 C2.57003729 4.00788727 0.58493024 3.98627457 -1.40011597 3.96426392 C-9.11437113 4.00313003 -15.31273308 4.35174679 -21.15158081 9.9515686 C-25.04190675 14.36836376 -25.73040527 17.69783467 -25.76660156 23.42138672 C-25.78101288 25.25876907 -25.78101288 25.25876907 -25.79571533 27.13327026 C-25.8005633 28.47165745 -25.80484213 29.81004679 -25.80859375 31.1484375 C-25.81434792 32.52222698 -25.82010562 33.89601645 -25.8258667 35.26980591 C-25.83636682 38.14976373 -25.84221598 41.02969371 -25.84570312 43.90966797 C-25.85118665 47.59398756 -25.87521535 51.27793737 -25.90367508 54.96214104 C-25.92232901 57.80006983 -25.9275085 60.63791001 -25.929039 63.47589493 C-25.93205973 64.83383328 -25.94006872 66.19177029 -25.95322418 67.54964828 C-25.97034069 69.45213214 -25.96655152 71.35476902 -25.96191406 73.25732422 C-25.96555969 74.33859589 -25.96920532 75.41986755 -25.97296143 76.53390503 C-25.55785089 79.84903251 -24.37015017 81.67963704 -22.60546875 84.46875 C-23.10046875 85.45875 -23.10046875 85.45875 -23.60546875 86.46875 C-27.48483958 81.58236479 -28.20483971 78.16742968 -28.21484375 72.0078125 C-28.23138 71.21724457 -28.24791626 70.42667664 -28.26495361 69.6121521 C-28.31324363 67.10593756 -28.33476118 64.60032888 -28.35546875 62.09375 C-28.38364449 60.38668858 -28.41357417 58.67965515 -28.4453125 56.97265625 C-28.51899684 52.80473743 -28.56868687 48.6371512 -28.60546875 44.46875 C-29.26546875 44.13875 -29.92546875 43.80875 -30.60546875 43.46875 C-30.75195609 39.15661343 -30.83993999 34.84512557 -30.91796875 30.53125 C-30.95986328 29.31888672 -31.00175781 28.10652344 -31.04492188 26.85742188 C-31.1494569 19.1427372 -30.38564965 13.6727768 -25.60546875 7.46875 C-18.13473081 -0.00198794 -10.00673585 0.00159895 0 0 Z " fill="#D87072" transform="translate(31.60546875,1.53125)"/>
<path d="M0 0 C2.71065721 2.59280255 3.93692202 3.94233961 4.1673584 7.80618286 C4.18625122 9.00338959 4.20514404 10.20059631 4.22460938 11.43408203 C4.24169449 12.42473915 4.24169449 12.42473915 4.25912476 13.43540955 C4.36989257 20.35348611 4.41723168 27.27262964 4.45996094 34.19140625 C4.48220257 37.4702616 4.523917 40.74797264 4.58300781 44.02636719 C4.65431397 47.99050001 4.69082461 51.95355944 4.70307922 55.91830063 C4.71344576 57.42459041 4.73578947 58.93084997 4.77067566 60.43677139 C5.06126814 73.66927254 5.06126814 73.66927254 0.89257812 78.80029297 C-5.39760951 84.5822348 -11.49636316 85.44490043 -19.6953125 85.328125 C-21.06101883 85.32531525 -21.06101883 85.32531525 -22.45431519 85.32244873 C-24.36883232 85.31575727 -26.28333646 85.30190106 -28.19775391 85.28125 C-31.1228512 85.25002294 -34.04740852 85.24026575 -36.97265625 85.234375 C-38.83854822 85.22520639 -40.70443473 85.21483107 -42.5703125 85.203125 C-43.44124542 85.19887512 -44.31217834 85.19462524 -45.20950317 85.19024658 C-49.26353249 85.14262553 -53.04501203 85.00870892 -57 84 C-57 83.67 -57 83.34 -57 83 C-63.27 82.67 -69.54 82.34 -76 82 C-76 81.67 -76 81.34 -76 81 C-75.21596802 80.99635437 -74.43193604 80.99270874 -73.62414551 80.98895264 C-66.20942646 80.95097317 -58.79520435 80.89400878 -51.38080597 80.81609726 C-47.56960919 80.77670812 -43.75864048 80.74447814 -39.94726562 80.72900391 C-36.2640966 80.71378019 -32.58155495 80.67923545 -28.89866638 80.63169098 C-27.49862646 80.61693561 -26.09849694 80.60896236 -24.69837952 80.60811615 C-16.75193882 80.59848956 -10.73405883 80.4343757 -4 76 C0.19325261 71.4841895 1.12514503 68.94915201 1.12939453 62.86962891 C1.13412277 60.93719833 1.13412277 60.93719833 1.13894653 58.96572876 C1.13715632 57.55267299 1.13510526 56.13961754 1.1328125 54.7265625 C1.13348598 53.28168725 1.13445637 51.83681212 1.13571167 50.39193726 C1.1371875 47.36056441 1.13503838 44.32922099 1.13037109 41.29785156 C1.12468405 37.41512511 1.12794701 33.53246793 1.13394356 29.64974403 C1.13756094 26.66431153 1.13640499 23.67889538 1.13381577 20.69346237 C1.13314923 19.26214973 1.13396538 17.83083559 1.13629532 16.39952469 C1.13883996 14.39607014 1.13427267 12.39261038 1.12939453 10.38916016 C1.12859894 9.24935699 1.12780334 8.10955383 1.12698364 6.93521118 C1.01889262 4.43670055 0.73072324 2.37776316 0 0 Z " fill="#B0696A" transform="translate(95,13)"/>
<path d="M0 0 C4.58395782 -0.10771702 9.16539636 -0.18719721 13.75 -0.25 C15.05195312 -0.28351562 16.35390625 -0.31703125 17.6953125 -0.3515625 C18.94570313 -0.36445313 20.19609375 -0.37734375 21.484375 -0.390625 C22.63647461 -0.41157227 23.78857422 -0.43251953 24.97558594 -0.45410156 C28.63926314 0.09598236 29.78812059 1.08415897 32 4 C32.48273516 6.8274488 32.5137755 8.24540281 30.88745117 10.6340332 C28.07354315 12.67048584 25.80142592 12.33800995 22.36328125 12.29296875 C21.06455078 12.28330078 19.76582031 12.27363281 18.42773438 12.26367188 C17.05598361 12.23860585 15.68423882 12.21321101 14.3125 12.1875 C12.92905076 12.1724502 11.54558599 12.1587623 10.16210938 12.14648438 C6.77434793 12.11107223 3.38736861 12.06168054 0 12 C0 8.04 0 4.08 0 0 Z " fill="#E51E29" transform="translate(40,24)"/>
<path d="M0 0 C2.30388782 3.45583173 3.943536 7.05655123 5.68359375 10.8203125 C6.86985454 13.31694673 6.86985454 13.31694673 10 14 C9.67 12.68 9.34 11.36 9 10 C12.3 11.65 15.6 13.3 19 15 C19 15.66 19 16.32 19 17 C19.87736816 16.97643433 19.87736816 16.97643433 20.77246094 16.95239258 C23.43154164 16.88989733 26.09046764 16.85096431 28.75 16.8125 C30.13058594 16.77479492 30.13058594 16.77479492 31.5390625 16.73632812 C32.42851563 16.72666016 33.31796875 16.71699219 34.234375 16.70703125 C35.05131836 16.6913208 35.86826172 16.67561035 36.70996094 16.65942383 C39 17 39 17 43 20 C37.72 20.33 32.44 20.66 27 21 C27 21.33 27 21.66 27 22 C18.09 22 9.18 22 0 22 C0 14.74 0 7.48 0 0 Z " fill="#821D26" transform="translate(0,78)"/>
<path d="M0 0 C0.33 0 0.66 0 1 0 C1 4.95 1 9.9 1 15 C-23.09 15 -47.18 15 -72 15 C-72.33 14.34 -72.66 13.68 -73 13 C-72.2786084 12.99635437 -71.5572168 12.99270874 -70.81396484 12.98895264 C-63.9879193 12.95095557 -57.16226239 12.89397079 -50.33656311 12.81609726 C-46.82803584 12.77672684 -43.3197556 12.74448793 -39.81103516 12.72900391 C-35.76945442 12.71084656 -31.72879476 12.66085047 -27.6875 12.609375 C-26.4382373 12.60814636 -25.18897461 12.60691772 -23.90185547 12.60565186 C-16.35659024 12.47963141 -10.11386919 12.03357088 -4.45214844 6.48236084 C-2.69342292 4.44810063 -1.20406439 2.40812879 0 0 Z " fill="#5E141B" transform="translate(99,85)"/>
<path d="M0 0 C-0.00666183 0.82827805 -0.01332367 1.65655609 -0.02018738 2.50993347 C-0.08034391 10.32261708 -0.12599747 18.1352227 -0.15543652 25.94808483 C-0.17108035 29.96459536 -0.19229492 33.98091422 -0.22631836 37.99731445 C-0.25895797 41.87470186 -0.27686267 45.75190512 -0.28463173 49.62941933 C-0.29016701 51.10738333 -0.30097619 52.58533746 -0.31719017 54.06322289 C-0.33902641 56.13636282 -0.34196446 58.20874564 -0.34057617 60.28198242 C-0.34723801 61.46112717 -0.35389984 62.64027191 -0.36076355 63.85514832 C0.03572686 67.31143854 1.14609051 69.11335987 3 72 C2.505 72.99 2.505 72.99 2 74 C-1.87937083 69.11361479 -2.59937096 65.69867968 -2.609375 59.5390625 C-2.62591125 58.74849457 -2.64244751 57.95792664 -2.65948486 57.1434021 C-2.70777488 54.63718756 -2.72929243 52.13157888 -2.75 49.625 C-2.77817574 47.91793858 -2.80810542 46.21090515 -2.83984375 44.50390625 C-2.91352809 40.33598743 -2.96321812 36.1684012 -3 32 C-3.66 31.67 -4.32 31.34 -5 31 C-5.02896822 26.56251365 -5.04678788 22.12505153 -5.0625 17.6875 C-5.07087891 16.42486328 -5.07925781 15.16222656 -5.08789062 13.86132812 C-5.09111328 12.65283203 -5.09433594 11.44433594 -5.09765625 10.19921875 C-5.10289307 9.08377686 -5.10812988 7.96833496 -5.11352539 6.8190918 C-5 4 -5 4 -4 1 C-2 0 -2 0 0 0 Z " fill="#B95452" transform="translate(6,14)"/>
<path d="M0 0 C0.33 0 0.66 0 1 0 C1.45532157 6.37450193 0.66912046 10.69003063 -3 16 C-9.913783 23.07091443 -17.55439259 24.43358582 -27 24.6875 C-27.87011719 24.72166016 -28.74023438 24.75582031 -29.63671875 24.79101562 C-31.75738815 24.87257983 -33.87866891 24.93798528 -36 25 C-36 24.34 -36 23.68 -36 23 C-32.7 23 -29.4 23 -26 23 C-25.67 22.01 -25.34 21.02 -25 20 C-24.34773438 19.89042969 -23.69546875 19.78085937 -23.0234375 19.66796875 C-15.89492372 18.3747428 -9.73534932 16.87836468 -5 11 C-3.93097061 8.69747517 -2.92824183 6.3627974 -2 4 C-1.34711373 2.65986503 -0.68774405 1.32258472 0 0 Z " fill="#B5171D" transform="translate(85,27)"/>
<path d="M0 0 C7.32058673 -0.52289905 12.12415024 0.8168553 17.8359375 5.5078125 C21.13919085 8.84208232 22.36009293 11.19705027 22.375 15.9375 C22.27987996 17.29409299 22.16528674 18.65015829 22 20 C21.01 20.33 20.02 20.66 19 21 C18.91363281 20.40832031 18.82726562 19.81664063 18.73828125 19.20703125 C17.75222407 13.66159044 16.5957118 10.61091642 12 7 C9.12587818 5.31777353 7.01003035 4.74114513 3.69042969 4.68115234 C2.4295755 4.65134781 2.4295755 4.65134781 1.14324951 4.62094116 C0.24519592 4.60938995 -0.65285767 4.59783875 -1.578125 4.5859375 C-2.96798615 4.55688828 -2.96798615 4.55688828 -4.38592529 4.5272522 C-7.34052371 4.46755233 -10.29516129 4.42110932 -13.25 4.375 C-15.25522517 4.3368114 -17.26043409 4.29775915 -19.265625 4.2578125 C-24.17695111 4.1618586 -29.088354 4.07779197 -34 4 C-34 3.67 -34 3.34 -34 3 C-22.78 2.67 -11.56 2.34 0 2 C0 1.34 0 0.68 0 0 Z " fill="#DD5A57" transform="translate(63,12)"/>
<path d="M0 0 C6.66750279 0.16977438 11.95080217 1.44815357 17 6 C20.56658733 10.53659345 21.49498477 13.45463961 21.45410156 19.19873047 C21.45468567 19.89211014 21.45526978 20.58548981 21.45587158 21.29988098 C21.45310323 23.57284063 21.42207381 25.84445935 21.390625 28.1171875 C21.38315809 29.70044234 21.37746728 31.28370647 21.37347412 32.86697388 C21.35825305 37.01987541 21.31900245 41.17221109 21.2746582 45.32489014 C21.23362884 49.56807807 21.21544681 53.81135807 21.1953125 58.0546875 C21.15250406 66.37005039 21.08429639 74.68495466 21 83 C20.34 83 19.68 83 19 83 C19.01332367 82.1806044 19.02664734 81.3612088 19.04037476 80.51698303 C19.16099984 72.76445535 19.25214935 65.01238777 19.31087303 57.25916386 C19.34207976 53.27384712 19.38435283 49.28931095 19.45263672 45.30444336 C19.51821664 41.45291503 19.55378606 37.60213355 19.56926346 33.75008965 C19.58028133 32.28650606 19.6017966 30.82295966 19.63438034 29.35969734 C19.80324399 21.456287 19.62602455 15.18749123 14.68862915 8.66062927 C11.84891997 5.86800651 8.69515604 4.37335368 5 3 C4.01 2.5875 3.02 2.175 2 1.75 C1.34 1.5025 0.68 1.255 0 1 C0 0.67 0 0.34 0 0 Z " fill="#91212B" transform="translate(79,2)"/>
<path d="M0 0 C0.66 0 1.32 0 2 0 C3.34089507 2.68179013 3.16168085 4.82017594 3.2109375 7.8203125 C3.23929687 8.9959375 3.26765625 10.1715625 3.296875 11.3828125 C3.34846607 13.85402469 3.39287827 16.32539844 3.4296875 18.796875 C3.65571647 27.44248306 4.41193229 34.08143998 10 41 C10 41.66 10 42.32 10 43 C8.16796875 42.8046875 8.16796875 42.8046875 6 42 C4.55078125 39.8203125 4.55078125 39.8203125 3.3125 37.125 C2.89613281 36.24070313 2.47976562 35.35640625 2.05078125 34.4453125 C0.21612125 30.17580633 -0.11788339 26.99529671 -0.09765625 22.36328125 C-0.09443359 21.06455078 -0.09121094 19.76582031 -0.08789062 18.42773438 C-0.07953531 17.05598892 -0.07107037 15.68424413 -0.0625 14.3125 C-0.05748335 12.92903805 -0.05292073 11.54557437 -0.04882812 10.16210938 C-0.03702529 6.77469605 -0.02056019 3.38736967 0 0 Z " fill="#550D0F" transform="translate(0,49)"/>
<path d="M0 0 C13.53 0 27.06 0 41 0 C41 0.99 41 1.98 41 3 C35.82218777 3.02477057 30.64441025 3.04289347 25.46655273 3.05493164 C23.70612995 3.0599517 21.94571132 3.0667691 20.18530273 3.07543945 C17.65086846 3.08760703 15.11648946 3.09325166 12.58203125 3.09765625 C11.79850784 3.10281754 11.01498444 3.10797882 10.2077179 3.11329651 C6.34408861 3.11369066 2.754835 2.9444276 -1 2 C-0.67 1.34 -0.34 0.68 0 0 Z " fill="#F05854" transform="translate(39,95)"/>
<path d="M0 0 C10.89 0 21.78 0 33 0 C33 0.66 33 1.32 33 2 C33.99 2.33 34.98 2.66 36 3 C24.12 3 12.24 3 0 3 C0 2.01 0 1.02 0 0 Z " fill="#E52F34" transform="translate(30,12)"/>
<path d="M0 0 C1.65 0 3.3 0 5 0 C5 0.66 5 1.32 5 2 C5.58491211 1.98428955 6.16982422 1.9685791 6.77246094 1.95239258 C9.43154164 1.88989733 12.09046764 1.85096431 14.75 1.8125 C16.13058594 1.77479492 16.13058594 1.77479492 17.5390625 1.73632812 C18.42851563 1.72666016 19.31796875 1.71699219 20.234375 1.70703125 C21.05131836 1.6913208 21.86826172 1.67561035 22.70996094 1.65942383 C25 2 25 2 29 5 C21.08 5.495 21.08 5.495 13 6 C13 6.33 13 6.66 13 7 C9.7 7 6.4 7 3 7 C2.67 5.68 2.34 4.36 2 3 C0.68 2.67 -0.64 2.34 -2 2 C-1.34 2 -0.68 2 0 2 C0 1.34 0 0.68 0 0 Z " fill="#76171B" transform="translate(14,93)"/>
<path d="M0 0 C0.33 0 0.66 0 1 0 C1.50394681 7.05525531 0.22137652 12.21838409 -4.4375 17.6875 C-6.74144195 19.62281124 -9.07295311 19.67477257 -12 20 C-12 19.01 -12 18.02 -12 17 C-10.57421875 15.640625 -10.57421875 15.640625 -8.6875 14.25 C-4.86278236 11.15012804 -3.62228107 8.61069356 -2 4 C-1.34711373 2.65986503 -0.68774405 1.32258472 0 0 Z " fill="#BF2026" transform="translate(85,27)"/>
<path d="M0 0 C0.33 0 0.66 0 1 0 C1 7.59 1 15.18 1 23 C1.99 23.33 2.98 23.66 4 24 C4 34.56 4 45.12 4 56 C3.67 56 3.34 56 3 56 C2.67 46.43 2.34 36.86 2 27 C1.34 27 0.68 27 0 27 C0 18.09 0 9.18 0 0 Z " fill="#872427" transform="translate(0,22)"/>
<path d="M0 0 C6.93 0 13.86 0 21 0 C21.33 0.99 21.66 1.98 22 3 C19.10410348 3.02706445 16.20846205 3.04687029 13.3125 3.0625 C12.08756836 3.07506836 12.08756836 3.07506836 10.83789062 3.08789062 C6.75500916 3.10442051 2.98348293 3.03035098 -1 2 C-0.67 1.34 -0.34 0.68 0 0 Z " fill="#E0282E" transform="translate(39,95)"/>
<path d="M0 0 C0.66 0 1.32 0 2 0 C3.31164842 2.62329684 3.13262846 4.63698625 3.125 7.5625 C3.12757812 8.55378906 3.13015625 9.54507813 3.1328125 10.56640625 C3 13 3 13 2 14 C1.76346477 16.52596259 1.57826308 19.03107207 1.4375 21.5625 C1.39431641 22.27341797 1.35113281 22.98433594 1.30664062 23.71679688 C1.20028223 25.47761912 1.09961154 27.2387832 1 29 C0.67 29 0.34 29 0 29 C0 19.43 0 9.86 0 0 Z " fill="#6F1118" transform="translate(0,49)"/>
<path d="M0 0 C3.16115776 1.36983503 3.9927092 1.9890638 6 5 C6.1953125 7.26171875 6.1953125 7.26171875 6.125 9.6875 C6.10695313 10.49574219 6.08890625 11.30398437 6.0703125 12.13671875 C6.03550781 13.05904297 6.03550781 13.05904297 6 14 C5.01 14.33 4.02 14.66 3 15 C2.86722656 14.36191406 2.73445313 13.72382813 2.59765625 13.06640625 C2.42105469 12.24011719 2.24445313 11.41382813 2.0625 10.5625 C1.88847656 9.73878906 1.71445313 8.91507813 1.53515625 8.06640625 C1.19247006 6.02338796 1.19247006 6.02338796 0 5 C-0.04063832 3.33382885 -0.042721 1.66611905 0 0 Z " fill="#E03D3D" transform="translate(79,18)"/>
<path d="M0 0 C2.91722548 -0.08103404 5.83219516 -0.14051081 8.75 -0.1875 C9.575 -0.21263672 10.4 -0.23777344 11.25 -0.26367188 C17.42297754 -0.33834499 17.42297754 -0.33834499 20.578125 1.51171875 C21.28195313 2.24841797 21.28195313 2.24841797 22 3 C14.31604457 3.2137731 7.43659188 3.01670288 0 1 C0 0.67 0 0.34 0 0 Z " fill="#C9151B" transform="translate(21,95)"/>
<path d="M0 0 C0.33 0 0.66 0 1 0 C1.16682272 4.92127034 1.24828052 8.50343896 -1 13 C-1.66 13 -2.32 13 -3 13 C-3.6875 10.75 -3.6875 10.75 -4 8 C-2.625 5.9375 -2.625 5.9375 -1 4 C-0.29485154 1.85266073 -0.29485154 1.85266073 0 0 Z " fill="#D2262B" transform="translate(85,27)"/>
<path d="M0 0 C1.4783226 2.95664519 1.06032783 5.74229737 1 9 C0.2575 9.28875 -0.485 9.5775 -1.25 9.875 C-3.56900199 10.82368263 -5.76932676 11.86559779 -8 13 C-7.59007813 12.39671875 -7.18015625 11.7934375 -6.7578125 11.171875 C-6.21898438 10.37265625 -5.68015625 9.5734375 -5.125 8.75 C-4.59132813 7.96109375 -4.05765625 7.1721875 -3.5078125 6.359375 C-2.18177985 4.28444308 -1.05071825 2.22385028 0 0 Z " fill="#CF4F51" transform="translate(98,78)"/>
<path d="M0 0 C2.97 1.65 5.94 3.3 9 5 C5 7 5 7 2.875 6.75 C1 6 1 6 -1 4 C-0.34 4 0.32 4 1 4 C0.67 2.68 0.34 1.36 0 0 Z " fill="#8F4844" transform="translate(9,88)"/>
<path d="M0 0 C0.33 1.32 0.66 2.64 1 4 C-1.64 4.33 -4.28 4.66 -7 5 C-7 4.01 -7 3.02 -7 2 C-4.69 1.34 -2.38 0.68 0 0 Z " fill="#CD1923" transform="translate(87,93)"/>
<path d="M0 0 C2.74277578 3.19990508 4.6302836 6.00499382 6 10 C4.125 9.75 4.125 9.75 2 9 C-0.11103658 6.04454879 -0.19785783 3.56144099 0 0 Z " fill="#5F1513" transform="translate(4,82)"/>
<path d="M0 0 C1.43861294 0.08746284 2.87597508 0.19565348 4.3125 0.3125 C5.11300781 0.37050781 5.91351563 0.42851563 6.73828125 0.48828125 C9.36272334 1.08206694 10.30820672 1.95780294 12 4 C10 5 10 5 7.6171875 4.22265625 C6.71226563 3.83980469 5.80734375 3.45695313 4.875 3.0625 C3.50988281 2.49208984 3.50988281 2.49208984 2.1171875 1.91015625 C1.41851562 1.60980469 0.71984375 1.30945313 0 1 C0 0.67 0 0.34 0 0 Z " fill="#8F2930" transform="translate(79,2)"/>
<path d="M0 0 C0.66 0 1.32 0 2 0 C3.35439668 2.70879335 3.06501451 5.00933268 3 8 C2.34 8 1.68 8 1 8 C0.67 8.66 0.34 9.32 0 10 C0 6.7 0 3.4 0 0 Z " fill="#7E131A" transform="translate(0,49)"/>
<path d="M0 0 C-0.99 3.96 -1.98 7.92 -3 12 C-3.33 12 -3.66 12 -4 12 C-4 8.37 -4 4.74 -4 1 C-2 0 -2 0 0 0 Z " fill="#DB2B32" transform="translate(6,14)"/>
<path d="M0 0 C0.66 0.33 1.32 0.66 2 1 C0.02 3.31 -1.96 5.62 -4 8 C-4.33 7.34 -4.66 6.68 -5 6 C-5.66 6 -6.32 6 -7 6 C-7 5.34 -7 4.68 -7 4 C-6.030625 3.525625 -5.06125 3.05125 -4.0625 2.5625 C-1.19522563 1.29806053 -1.19522563 1.29806053 0 0 Z " fill="#DA797C" transform="translate(11,8)"/>
<path d="M0 0 C0.33 0.66 0.66 1.32 1 2 C3.57951874 2.69093896 3.57951874 2.69093896 6.5625 3.125 C7.57441406 3.29257813 8.58632813 3.46015625 9.62890625 3.6328125 C10.80259766 3.81457031 10.80259766 3.81457031 12 4 C12 4.33 12 4.66 12 5 C8.37 5 4.74 5 1 5 C0.34 3.68 -0.32 2.36 -1 1 C-0.67 0.67 -0.34 0.34 0 0 Z " fill="#9E191E" transform="translate(18,93)"/>
<path d="M0 0 C5.53846154 -0.36923077 5.53846154 -0.36923077 7.875 1.5 C8.24625 1.995 8.6175 2.49 9 3 C8.67 3.66 8.34 4.32 8 5 C5.36 4.01 2.72 3.02 0 2 C0 1.34 0 0.68 0 0 Z " fill="#EE544F" transform="translate(63,12)"/>
<path d="M0 0 C1.98 0 3.96 0 6 0 C6.33 0.99 6.66 1.98 7 3 C4.36 3 1.72 3 -1 3 C-0.67 2.01 -0.34 1.02 0 0 Z " fill="#E43C3F" transform="translate(54,95)"/>
</svg>
